<svg width="14" height="15" viewBox="0 0 14 15" fill="none" xmlns="http://www.w3.org/2000/svg">
<path d="M11.6667 2.16666H10.3334V1.49999C10.3334 1.32318 10.2631 1.15361 10.1381 1.02859C10.0131 0.903566 9.84352 0.833328 9.66671 0.833328C9.4899 0.833328 9.32033 0.903566 9.1953 1.02859C9.07028 1.15361 9.00004 1.32318 9.00004 1.49999V2.16666H5.00004V1.49999C5.00004 1.32318 4.9298 1.15361 4.80478 1.02859C4.67975 0.903566 4.51018 0.833328 4.33337 0.833328C4.15656 0.833328 3.98699 0.903566 3.86197 1.02859C3.73695 1.15361 3.66671 1.32318 3.66671 1.49999V2.16666H2.33337C1.80294 2.16666 1.29423 2.37738 0.91916 2.75245C0.544088 3.12752 0.333374 3.63623 0.333374 4.16666V12.1667C0.333374 12.6971 0.544088 13.2058 0.91916 13.5809C1.29423 13.9559 1.80294 14.1667 2.33337 14.1667H11.6667C12.1971 14.1667 12.7058 13.9559 13.0809 13.5809C13.456 13.2058 13.6667 12.6971 13.6667 12.1667V4.16666C13.6667 3.63623 13.456 3.12752 13.0809 2.75245C12.7058 2.37738 12.1971 2.16666 11.6667 2.16666ZM12.3334 12.1667C12.3334 12.3435 12.2631 12.513 12.1381 12.6381C12.0131 12.7631 11.8435 12.8333 11.6667 12.8333H2.33337C2.15656 12.8333 1.98699 12.7631 1.86197 12.6381C1.73695 12.513 1.66671 12.3435 1.66671 12.1667V7.49999H12.3334V12.1667ZM12.3334 6.16666H1.66671V4.16666C1.66671 3.98985 1.73695 3.82028 1.86197 3.69526C1.98699 3.57023 2.15656 3.49999 2.33337 3.49999H3.66671V4.16666C3.66671 4.34347 3.73695 4.51304 3.86197 4.63807C3.98699 4.76309 4.15656 4.83333 4.33337 4.83333C4.51018 4.83333 4.67975 4.76309 4.80478 4.63807C4.9298 4.51304 5.00004 4.34347 5.00004 4.16666V3.49999H9.00004V4.16666C9.00004 4.34347 9.07028 4.51304 9.1953 4.63807C9.32033 4.76309 9.4899 4.83333 9.66671 4.83333C9.84352 4.83333 10.0131 4.76309 10.1381 4.63807C10.2631 4.51304 10.3334 4.34347 10.3334 4.16666V3.49999H11.6667C11.8435 3.49999 12.0131 3.57023 12.1381 3.69526C12.2631 3.82028 12.3334 3.98985 12.3334 4.16666V6.16666Z" fill="#F24E1E"/>
</svg>
