<svg width="28" height="28" viewBox="0 0 28 28" fill="none" xmlns="http://www.w3.org/2000/svg">
<g clip-path="url(#clip0_7_403)">
<path d="M25.2855 21.6456C24.5355 20.9769 23.8789 20.2104 23.3333 19.3667C22.7377 18.202 22.3807 16.9301 22.2833 15.6256V11.7833C22.2885 9.73436 21.5452 7.75403 20.1932 6.21442C19.0357 4.8963 17.5002 3.97889 15.807 3.57926C15.3171 3.46365 14.9411 3.04514 14.9411 2.54185V2.41889C14.9411 2.1435 14.8317 1.8794 14.637 1.68468C14.4422 1.48995 14.1781 1.38055 13.9027 1.38055C13.6274 1.38055 13.3633 1.48995 13.1685 1.68468C12.9738 1.8794 12.8644 2.1435 12.8644 2.41889V2.56648C12.8644 3.06586 12.4939 3.48236 12.009 3.60153C10.3313 4.01379 8.81365 4.93521 7.67083 6.24953C6.33659 7.78397 5.60365 9.74994 5.60775 11.7833V15.6256C5.51033 16.9301 5.15335 18.202 4.55775 19.3667C4.02177 20.2085 3.37568 20.9749 2.63664 21.6456C2.55367 21.7184 2.48718 21.8082 2.44158 21.9087C2.39599 22.0093 2.37233 22.1185 2.37219 22.2289V23.2867C2.37219 23.4929 2.45414 23.6908 2.6 23.8366C2.74586 23.9825 2.94369 24.0644 3.14997 24.0644H24.7722C24.9785 24.0644 25.1763 23.9825 25.3222 23.8366C25.468 23.6908 25.55 23.4929 25.55 23.2867V22.2289C25.5498 22.1185 25.5262 22.0093 25.4806 21.9087C25.435 21.8082 25.3685 21.7184 25.2855 21.6456ZM6.46444 22.5089C5.56518 22.5089 5.07746 21.3654 5.58962 20.6262C5.69215 20.4782 5.79156 20.328 5.88775 20.1756C6.638 18.7689 7.07575 17.2169 7.17108 15.6256V11.7833C7.14023 10.8718 7.29313 9.96339 7.62067 9.11218C7.94821 8.26098 8.44369 7.48439 9.07761 6.82866C9.71152 6.17292 10.4709 5.65146 11.3106 5.29532C12.1502 4.93918 13.0529 4.75565 13.965 4.75565C14.877 4.75565 15.7797 4.93918 16.6194 5.29532C17.459 5.65146 18.2184 6.17292 18.8523 6.82866C19.4862 7.48439 19.9817 8.26098 20.3093 9.11218C20.6368 9.96339 20.7897 10.8718 20.7589 11.7833V15.6256C20.8542 17.2169 21.2919 18.7689 22.0422 20.1756C22.1384 20.328 22.2378 20.4782 22.3403 20.6262C22.8525 21.3654 22.3648 22.5089 21.4655 22.5089H6.46444Z" fill="#3A3939"/>
<path d="M14 26.6622C14.4899 26.6509 14.9601 26.4667 15.3273 26.1422C15.6946 25.8177 15.9352 25.3737 16.0066 24.8889H11.9155C11.989 25.3869 12.2409 25.8413 12.6243 26.1675C13.0077 26.4937 13.4966 26.6695 14 26.6622Z" fill="#3A3939"/>
<circle cx="20" cy="7" r="4" fill="#EA0000"/>
</g>
<defs>
<clipPath id="clip0_7_403">
<rect width="28" height="28" fill="white"/>
</clipPath>
</defs>
</svg>
