<svg width="16" height="17" viewBox="0 0 16 17" fill="none" xmlns="http://www.w3.org/2000/svg">
<path d="M10.9846 8.85202C12.352 8.85202 13.4663 7.63402 13.4663 6.15202C13.4663 4.68688 12.3577 3.52631 10.9846 3.52631C9.62286 3.52631 8.50257 4.70402 8.50257 6.16345C8.50829 7.63973 9.62286 8.85202 10.9846 8.85202ZM4.36629 8.97831C5.54971 8.97831 6.52057 7.91545 6.52057 6.61145C6.52057 5.33602 5.56114 4.30773 4.36629 4.30773C3.18286 4.30773 2.20629 5.35345 2.212 6.62288C2.21771 7.92145 3.18286 8.97831 4.36629 8.97831ZM10.9846 7.98459C10.1457 7.98459 9.42743 7.18031 9.42743 6.16345C9.42743 5.16345 10.1343 4.39402 10.9846 4.39402C11.8406 4.39402 12.5414 5.15231 12.5414 6.15173C12.5414 7.16888 11.8349 7.98459 10.9846 7.98459ZM4.36629 8.12231C3.66543 8.12231 3.068 7.45031 3.068 6.62288C3.068 5.81288 3.65943 5.16373 4.36629 5.16373C5.09 5.16373 5.67029 5.80145 5.67029 6.61145C5.67029 7.45031 5.07286 8.12231 4.36629 8.12231ZM1.172 14.2466H5.682C5.406 14.0914 5.19343 13.7466 5.23371 13.3963H1.02857C0.913714 13.3963 0.856286 13.3506 0.856286 13.2412C0.856286 11.8166 2.482 10.4837 4.36086 10.4837C5.08457 10.4837 5.73371 10.656 6.29114 10.9834C6.47593 10.7492 6.69474 10.544 6.94029 10.3746C6.19914 9.88602 5.30886 9.63345 4.36086 9.63345C1.95343 9.63345 0 11.3797 0 13.2929C0 13.9306 0.390572 14.2466 1.172 14.2466ZM7.37657 14.2466H14.5926C15.546 14.2466 16 13.9594 16 13.3274C16 11.8223 14.0983 9.64459 10.9846 9.64459C7.86486 9.64459 5.96343 11.8223 5.96343 13.3274C5.96343 13.9594 6.41714 14.2466 7.37657 14.2466ZM7.10086 13.3792C6.95143 13.3792 6.88829 13.3392 6.88829 13.2183C6.88829 12.276 8.34743 10.5126 10.9846 10.5126C13.616 10.5126 15.0749 12.276 15.0749 13.2183C15.0749 13.3389 15.0177 13.3792 14.868 13.3792H7.10086Z" fill="#F24E1E"/>
</svg>
