<svg width="17" height="16" viewBox="0 0 17 16" fill="none" xmlns="http://www.w3.org/2000/svg">
<path d="M15.4775 15.325C15.8721 15.7083 16.4811 15.1167 16.0865 14.7417L12.8696 11.6083C13.9981 10.3954 14.6218 8.8182 14.6196 7.18334C14.6196 3.525 11.5571 0.550003 7.7912 0.550003C4.02527 0.550003 0.962769 3.525 0.962769 7.18334C0.962769 10.8417 4.02527 13.8167 7.7912 13.8167C9.48973 13.8167 11.0596 13.2083 12.2606 12.2L15.4775 15.325ZM1.81975 7.18334C1.81975 3.98334 4.5048 1.38334 7.79034 1.38334C11.0845 1.38334 13.7609 3.98334 13.7609 7.18334C13.7609 10.3833 11.0845 12.9833 7.79034 12.9833C4.5048 12.9833 1.81975 10.3833 1.81975 7.18334Z" fill="black" fill-opacity="0.5"/>
</svg>
